<mxfile host="app.diagrams.net" modified="2023-11-28T12:59:11.064Z" agent="Mozilla/5.0 (Windows NT 10.0; Win64; x64) AppleWebKit/537.36 (KHTML, like Gecko) Chrome/119.0.0.0 Safari/537.36" version="22.1.4" etag="kSTnpUfc3yiLmLZI3JXO" type="github">
  <diagram name="Halaman-1" id="Jhjz57Z2P_hpVZDOJRlo">
    <mxGraphModel>
      <root>
        <mxCell id="0" />
        <mxCell id="1" parent="0" />
      </root>
    </mxGraphModel>
  </diagram>
</mxfile>
